<svg xmlns="http://www.w3.org/2000/svg" xmlns:xlink="http://www.w3.org/1999/xlink" viewBox="0 0 48 48" height="100px" width="100px" ><defs></defs><g transform="matrix(1.63823 0 0 1.63823-632.44-847.28)" fill="#272727"><circle cx="400.57" cy="531.8" r="14" fill="272727" stroke="none" stroke-width="0" transform="translate(.135.045)" /><path d="m428.92 524.46c-.56.157-1.01.782-1.01 1.389v9.625c-.568-.311-1.297-.437-2.053-.231-1.364.371-2.219 1.571-1.927 2.679.292 1.108 1.637 1.727 3 1.356 1.089-.296 1.839-1.134 1.959-2.02l.032-9.1 7.08-1.985v7.178c-.568-.311-1.297-.437-2.053-.232-1.364.371-2.219 1.571-1.927 2.679.293 1.108 1.637 1.727 3 1.356 1.089-.296 1.839-1.134 1.959-2.02l.032-11.842c0-.455-.269-.796-.632-.86l-7.455 2.02" fill="#D2E5EE" fill-opacity="1" transform="matrix(.872 0 0 .872 24.624 68.873)"/></g></svg>